<svg width="1920" height="1080" viewBox="0 0 1920 1080" fill="none" xmlns="http://www.w3.org/2000/svg">
<rect width="1920" height="1080" fill="url(#paint0_linear_7799_2076)"/>
<g filter="url(#filter0_d_7799_2076)">
<path d="M217.5 340.023L217.905 341.118L219 341.523L217.905 341.929L217.5 343.023L217.095 341.929L216 341.523L217.095 341.118L217.5 340.023Z" fill="url(#paint1_radial_7799_2076)" fill-opacity="0.85" shape-rendering="crispEdges"/>
</g>
<g filter="url(#filter1_d_7799_2076)">
<path d="M1489 519.023L1490.35 522.673L1494 524.023L1490.35 525.374L1489 529.023L1487.65 525.374L1484 524.023L1487.65 522.673L1489 519.023Z" fill="url(#paint2_radial_7799_2076)" fill-opacity="0.85" shape-rendering="crispEdges"/>
</g>
<g filter="url(#filter2_d_7799_2076)">
<path d="M524.5 462L524.977 463.673L526.665 463.25L525.455 464.5L526.665 465.75L524.977 465.327L524.5 467L524.023 465.327L522.335 465.75L523.545 464.5L522.335 463.25L524.023 463.673L524.5 462Z" fill="url(#paint3_radial_7799_2076)" fill-opacity="0.85" shape-rendering="crispEdges"/>
</g>
<rect width="2.08163" height="58.2782" rx="0.5" transform="matrix(0.621343 0.783539 -0.783203 0.621766 815.644 844.567)" fill="url(#paint4_linear_7799_2076)" fill-opacity="0.4"/>
<rect width="2.08163" height="58.2782" rx="0.5" transform="matrix(0.621343 0.783539 -0.783203 0.621766 846.396 880.157)" fill="url(#paint5_linear_7799_2076)" fill-opacity="0.4"/>
<rect width="2.08163" height="134.177" rx="0.5" transform="matrix(0.621343 0.783539 -0.783203 0.621766 876.707 826.023)" fill="url(#paint6_linear_7799_2076)" fill-opacity="0.4"/>
<g filter="url(#filter3_d_7799_2076)">
<path d="M180 819.023L180.898 821.787H183.804L181.453 823.496L182.351 826.26L180 824.551L177.649 826.26L178.547 823.496L176.196 821.787H179.102L180 819.023Z" fill="url(#paint7_radial_7799_2076)" fill-opacity="0.85" shape-rendering="crispEdges"/>
</g>
<g filter="url(#filter4_d_7799_2076)">
<path d="M478 734.023L478.764 736.7L481.464 736.023L479.528 738.023L481.464 740.023L478.764 739.347L478 742.023L477.236 739.347L474.536 740.023L476.472 738.023L474.536 736.023L477.236 736.7L478 734.023Z" fill="url(#paint8_radial_7799_2076)" fill-opacity="0.85" shape-rendering="crispEdges"/>
</g>
<g filter="url(#filter5_d_7799_2076)">
<path d="M1234 326L1234.76 328.677L1237.46 328L1235.53 330L1237.46 332L1234.76 331.323L1234 334L1233.24 331.323L1230.54 332L1232.47 330L1230.54 328L1233.24 328.677L1234 326Z" fill="url(#paint9_radial_7799_2076)" fill-opacity="0.85" shape-rendering="crispEdges"/>
</g>
<g filter="url(#filter6_d_7799_2076)">
<path d="M1722 545.023L1722.57 547.031L1724.6 546.523L1723.15 548.023L1724.6 549.523L1722.57 549.016L1722 551.023L1721.43 549.016L1719.4 549.523L1720.85 548.023L1719.4 546.523L1721.43 547.031L1722 545.023Z" fill="url(#paint10_radial_7799_2076)" fill-opacity="0.85" shape-rendering="crispEdges"/>
</g>
<g filter="url(#filter7_d_7799_2076)">
<path d="M1806.5 679.023L1807.55 682.704L1811.26 681.773L1808.6 684.523L1811.26 687.273L1807.55 686.343L1806.5 690.023L1805.45 686.343L1801.74 687.273L1804.4 684.523L1801.74 681.773L1805.45 682.704L1806.5 679.023Z" fill="url(#paint11_radial_7799_2076)" fill-opacity="0.85" shape-rendering="crispEdges"/>
</g>
<g filter="url(#filter8_d_7799_2076)">
<path d="M1843 560.023L1844.08 562.943L1847 564.023L1844.08 565.104L1843 568.023L1841.92 565.104L1839 564.023L1841.92 562.943L1843 560.023Z" fill="url(#paint12_radial_7799_2076)" fill-opacity="0.85" shape-rendering="crispEdges"/>
</g>
<g filter="url(#filter9_d_7799_2076)">
<path d="M310.5 628.023L310.977 629.696L312.665 629.273L311.455 630.523L312.665 631.773L310.977 631.35L310.5 633.023L310.023 631.35L308.335 631.773L309.545 630.523L308.335 629.273L310.023 629.696L310.5 628.023Z" fill="url(#paint13_radial_7799_2076)" fill-opacity="0.85" shape-rendering="crispEdges"/>
</g>
<g filter="url(#filter10_d_7799_2076)">
<path d="M357 401.023L357.573 403.031L359.598 402.523L358.146 404.023L359.598 405.523L357.573 405.016L357 407.023L356.427 405.016L354.402 405.523L355.854 404.023L354.402 402.523L356.427 403.031L357 401.023Z" fill="url(#paint14_radial_7799_2076)" fill-opacity="0.85" shape-rendering="crispEdges"/>
</g>
<g filter="url(#filter11_d_7799_2076)">
<path d="M136.5 318.023L137.932 323.042L142.995 321.773L139.365 325.523L142.995 329.273L137.932 328.004L136.5 333.023L135.068 328.004L130.005 329.273L133.635 325.523L130.005 321.773L135.068 323.042L136.5 318.023Z" fill="url(#paint15_radial_7799_2076)" fill-opacity="0.85" shape-rendering="crispEdges"/>
</g>
<g filter="url(#filter12_d_7799_2076)">
<path d="M1001.5 823.023L1002.99 827.038L1007 828.523L1002.99 830.009L1001.5 834.023L1000.01 830.009L996 828.523L1000.01 827.038L1001.5 823.023Z" fill="url(#paint16_radial_7799_2076)" fill-opacity="0.85" shape-rendering="crispEdges"/>
</g>
<g filter="url(#filter13_d_7799_2076)">
<path d="M1011.5 420L1012.72 423.285L1016 424.5L1012.72 425.715L1011.5 429L1010.28 425.715L1007 424.5L1010.28 423.285L1011.5 420Z" fill="url(#paint17_radial_7799_2076)" fill-opacity="0.85" shape-rendering="crispEdges"/>
</g>
<g filter="url(#filter14_d_7799_2076)">
<path d="M891 648L891.81 650.19L894 651L891.81 651.81L891 654L890.19 651.81L888 651L890.19 650.19L891 648Z" fill="url(#paint18_radial_7799_2076)" fill-opacity="0.85" shape-rendering="crispEdges"/>
</g>
<path fill-rule="evenodd" clip-rule="evenodd" d="M620.348 811.573C653.99 804.227 689.089 807.609 720.71 821.243L680.279 915.018C668.26 909.836 654.919 908.55 642.133 911.342C629.346 914.134 617.755 920.863 608.99 930.583C600.226 940.303 594.727 952.526 593.268 965.532C591.809 978.539 594.462 991.676 600.856 1003.1C607.249 1014.52 617.06 1023.65 628.91 1029.2C640.761 1034.76 654.054 1036.46 666.922 1034.07C679.791 1031.68 691.586 1025.32 700.651 1015.88C709.716 1006.44 715.595 994.394 717.461 981.439L818.538 995.999C814.054 1027.13 800.763 1056.26 780.323 1080H530.656C523.503 1071.69 517.16 1062.65 511.748 1052.98C494.927 1022.93 487.946 988.368 491.785 954.147C495.624 919.927 510.09 887.77 533.151 862.197C556.211 836.623 586.705 818.919 620.348 811.573Z" fill="url(#paint19_linear_7799_2076)" fill-opacity="0.15"/>
<g filter="url(#filter15_d_7799_2076)">
<path d="M742.5 239L743.715 242.285L747 243.5L743.715 244.715L742.5 248L741.285 244.715L738 243.5L741.285 242.285L742.5 239Z" fill="url(#paint20_radial_7799_2076)" fill-opacity="0.85" shape-rendering="crispEdges"/>
</g>
<g filter="url(#filter16_d_7799_2076)">
<path d="M1227.5 667L1227.98 668.673L1229.67 668.25L1228.45 669.5L1229.67 670.75L1227.98 670.327L1227.5 672L1227.02 670.327L1225.33 670.75L1226.55 669.5L1225.33 668.25L1227.02 668.673L1227.5 667Z" fill="url(#paint21_radial_7799_2076)" fill-opacity="0.85" shape-rendering="crispEdges"/>
</g>
<g filter="url(#filter17_d_7799_2076)">
<path d="M664.5 423L664.977 424.673L666.665 424.25L665.455 425.5L666.665 426.75L664.977 426.327L664.5 428L664.023 426.327L662.335 426.75L663.545 425.5L662.335 424.25L664.023 424.673L664.5 423Z" fill="url(#paint22_radial_7799_2076)" fill-opacity="0.85" shape-rendering="crispEdges"/>
</g>
<path fill-rule="evenodd" clip-rule="evenodd" d="M1920 121.144C1718.9 61.4459 1500.4 160.268 1415.29 357.679C1323.45 570.684 1421.67 817.808 1634.68 909.646C1728.56 950.125 1829.08 953.68 1920 926.757V630.4C1875.48 680.202 1802.48 698.459 1737.76 670.556C1656.8 635.65 1619.47 541.723 1654.38 460.764C1689.28 379.804 1783.21 342.471 1864.17 377.377C1886.2 386.877 1905.01 400.749 1920 417.541V121.144Z" fill="url(#paint23_linear_7799_2076)" fill-opacity="0.1"/>
<defs>
<filter id="filter0_d_7799_2076" x="183.216" y="307.239" width="68.5687" height="68.5687" filterUnits="userSpaceOnUse" color-interpolation-filters="sRGB">
<feFlood flood-opacity="0" result="BackgroundImageFix"/>
<feColorMatrix in="SourceAlpha" type="matrix" values="0 0 0 0 0 0 0 0 0 0 0 0 0 0 0 0 0 0 127 0" result="hardAlpha"/>
<feOffset/>
<feGaussianBlur stdDeviation="16.3922"/>
<feComposite in2="hardAlpha" operator="out"/>
<feColorMatrix type="matrix" values="0 0 0 0 1 0 0 0 0 1 0 0 0 0 1 0 0 0 0.25 0"/>
<feBlend mode="normal" in2="BackgroundImageFix" result="effect1_dropShadow_7799_2076"/>
<feBlend mode="normal" in="SourceGraphic" in2="effect1_dropShadow_7799_2076" result="shape"/>
</filter>
<filter id="filter1_d_7799_2076" x="1451.22" y="486.239" width="75.5687" height="75.5687" filterUnits="userSpaceOnUse" color-interpolation-filters="sRGB">
<feFlood flood-opacity="0" result="BackgroundImageFix"/>
<feColorMatrix in="SourceAlpha" type="matrix" values="0 0 0 0 0 0 0 0 0 0 0 0 0 0 0 0 0 0 127 0" result="hardAlpha"/>
<feOffset/>
<feGaussianBlur stdDeviation="16.3922"/>
<feComposite in2="hardAlpha" operator="out"/>
<feColorMatrix type="matrix" values="0 0 0 0 1 0 0 0 0 1 0 0 0 0 1 0 0 0 0.25 0"/>
<feBlend mode="normal" in2="BackgroundImageFix" result="effect1_dropShadow_7799_2076"/>
<feBlend mode="normal" in="SourceGraphic" in2="effect1_dropShadow_7799_2076" result="shape"/>
</filter>
<filter id="filter2_d_7799_2076" x="489.551" y="429.216" width="69.8988" height="70.5687" filterUnits="userSpaceOnUse" color-interpolation-filters="sRGB">
<feFlood flood-opacity="0" result="BackgroundImageFix"/>
<feColorMatrix in="SourceAlpha" type="matrix" values="0 0 0 0 0 0 0 0 0 0 0 0 0 0 0 0 0 0 127 0" result="hardAlpha"/>
<feOffset/>
<feGaussianBlur stdDeviation="16.3922"/>
<feComposite in2="hardAlpha" operator="out"/>
<feColorMatrix type="matrix" values="0 0 0 0 1 0 0 0 0 1 0 0 0 0 1 0 0 0 0.25 0"/>
<feBlend mode="normal" in2="BackgroundImageFix" result="effect1_dropShadow_7799_2076"/>
<feBlend mode="normal" in="SourceGraphic" in2="effect1_dropShadow_7799_2076" result="shape"/>
</filter>
<filter id="filter3_d_7799_2076" x="143.411" y="786.239" width="73.1771" height="72.8048" filterUnits="userSpaceOnUse" color-interpolation-filters="sRGB">
<feFlood flood-opacity="0" result="BackgroundImageFix"/>
<feColorMatrix in="SourceAlpha" type="matrix" values="0 0 0 0 0 0 0 0 0 0 0 0 0 0 0 0 0 0 127 0" result="hardAlpha"/>
<feOffset/>
<feGaussianBlur stdDeviation="16.3922"/>
<feComposite in2="hardAlpha" operator="out"/>
<feColorMatrix type="matrix" values="0 0 0 0 1 0 0 0 0 1 0 0 0 0 1 0 0 0 0.25 0"/>
<feBlend mode="normal" in2="BackgroundImageFix" result="effect1_dropShadow_7799_2076"/>
<feBlend mode="normal" in="SourceGraphic" in2="effect1_dropShadow_7799_2076" result="shape"/>
</filter>
<filter id="filter4_d_7799_2076" x="441.752" y="701.239" width="72.4969" height="73.5687" filterUnits="userSpaceOnUse" color-interpolation-filters="sRGB">
<feFlood flood-opacity="0" result="BackgroundImageFix"/>
<feColorMatrix in="SourceAlpha" type="matrix" values="0 0 0 0 0 0 0 0 0 0 0 0 0 0 0 0 0 0 127 0" result="hardAlpha"/>
<feOffset/>
<feGaussianBlur stdDeviation="16.3922"/>
<feComposite in2="hardAlpha" operator="out"/>
<feColorMatrix type="matrix" values="0 0 0 0 1 0 0 0 0 1 0 0 0 0 1 0 0 0 0.25 0"/>
<feBlend mode="normal" in2="BackgroundImageFix" result="effect1_dropShadow_7799_2076"/>
<feBlend mode="normal" in="SourceGraphic" in2="effect1_dropShadow_7799_2076" result="shape"/>
</filter>
<filter id="filter5_d_7799_2076" x="1197.75" y="293.216" width="72.4969" height="73.5687" filterUnits="userSpaceOnUse" color-interpolation-filters="sRGB">
<feFlood flood-opacity="0" result="BackgroundImageFix"/>
<feColorMatrix in="SourceAlpha" type="matrix" values="0 0 0 0 0 0 0 0 0 0 0 0 0 0 0 0 0 0 127 0" result="hardAlpha"/>
<feOffset/>
<feGaussianBlur stdDeviation="16.3922"/>
<feComposite in2="hardAlpha" operator="out"/>
<feColorMatrix type="matrix" values="0 0 0 0 1 0 0 0 0 1 0 0 0 0 1 0 0 0 0.25 0"/>
<feBlend mode="normal" in2="BackgroundImageFix" result="effect1_dropShadow_7799_2076"/>
<feBlend mode="normal" in="SourceGraphic" in2="effect1_dropShadow_7799_2076" result="shape"/>
</filter>
<filter id="filter6_d_7799_2076" x="1686.62" y="512.239" width="70.7648" height="71.5687" filterUnits="userSpaceOnUse" color-interpolation-filters="sRGB">
<feFlood flood-opacity="0" result="BackgroundImageFix"/>
<feColorMatrix in="SourceAlpha" type="matrix" values="0 0 0 0 0 0 0 0 0 0 0 0 0 0 0 0 0 0 127 0" result="hardAlpha"/>
<feOffset/>
<feGaussianBlur stdDeviation="16.3922"/>
<feComposite in2="hardAlpha" operator="out"/>
<feColorMatrix type="matrix" values="0 0 0 0 1 0 0 0 0 1 0 0 0 0 1 0 0 0 0.25 0"/>
<feBlend mode="normal" in2="BackgroundImageFix" result="effect1_dropShadow_7799_2076"/>
<feBlend mode="normal" in="SourceGraphic" in2="effect1_dropShadow_7799_2076" result="shape"/>
</filter>
<filter id="filter7_d_7799_2076" x="1768.95" y="646.239" width="75.0951" height="76.5687" filterUnits="userSpaceOnUse" color-interpolation-filters="sRGB">
<feFlood flood-opacity="0" result="BackgroundImageFix"/>
<feColorMatrix in="SourceAlpha" type="matrix" values="0 0 0 0 0 0 0 0 0 0 0 0 0 0 0 0 0 0 127 0" result="hardAlpha"/>
<feOffset/>
<feGaussianBlur stdDeviation="16.3922"/>
<feComposite in2="hardAlpha" operator="out"/>
<feColorMatrix type="matrix" values="0 0 0 0 1 0 0 0 0 1 0 0 0 0 1 0 0 0 0.25 0"/>
<feBlend mode="normal" in2="BackgroundImageFix" result="effect1_dropShadow_7799_2076"/>
<feBlend mode="normal" in="SourceGraphic" in2="effect1_dropShadow_7799_2076" result="shape"/>
</filter>
<filter id="filter8_d_7799_2076" x="1806.22" y="527.239" width="73.5687" height="73.5687" filterUnits="userSpaceOnUse" color-interpolation-filters="sRGB">
<feFlood flood-opacity="0" result="BackgroundImageFix"/>
<feColorMatrix in="SourceAlpha" type="matrix" values="0 0 0 0 0 0 0 0 0 0 0 0 0 0 0 0 0 0 127 0" result="hardAlpha"/>
<feOffset/>
<feGaussianBlur stdDeviation="16.3922"/>
<feComposite in2="hardAlpha" operator="out"/>
<feColorMatrix type="matrix" values="0 0 0 0 1 0 0 0 0 1 0 0 0 0 1 0 0 0 0.25 0"/>
<feBlend mode="normal" in2="BackgroundImageFix" result="effect1_dropShadow_7799_2076"/>
<feBlend mode="normal" in="SourceGraphic" in2="effect1_dropShadow_7799_2076" result="shape"/>
</filter>
<filter id="filter9_d_7799_2076" x="275.551" y="595.239" width="69.8988" height="70.5687" filterUnits="userSpaceOnUse" color-interpolation-filters="sRGB">
<feFlood flood-opacity="0" result="BackgroundImageFix"/>
<feColorMatrix in="SourceAlpha" type="matrix" values="0 0 0 0 0 0 0 0 0 0 0 0 0 0 0 0 0 0 127 0" result="hardAlpha"/>
<feOffset/>
<feGaussianBlur stdDeviation="16.3922"/>
<feComposite in2="hardAlpha" operator="out"/>
<feColorMatrix type="matrix" values="0 0 0 0 1 0 0 0 0 1 0 0 0 0 1 0 0 0 0.25 0"/>
<feBlend mode="normal" in2="BackgroundImageFix" result="effect1_dropShadow_7799_2076"/>
<feBlend mode="normal" in="SourceGraphic" in2="effect1_dropShadow_7799_2076" result="shape"/>
</filter>
<filter id="filter10_d_7799_2076" x="321.617" y="368.239" width="70.765" height="71.5687" filterUnits="userSpaceOnUse" color-interpolation-filters="sRGB">
<feFlood flood-opacity="0" result="BackgroundImageFix"/>
<feColorMatrix in="SourceAlpha" type="matrix" values="0 0 0 0 0 0 0 0 0 0 0 0 0 0 0 0 0 0 127 0" result="hardAlpha"/>
<feOffset/>
<feGaussianBlur stdDeviation="16.3922"/>
<feComposite in2="hardAlpha" operator="out"/>
<feColorMatrix type="matrix" values="0 0 0 0 1 0 0 0 0 1 0 0 0 0 1 0 0 0 0.25 0"/>
<feBlend mode="normal" in2="BackgroundImageFix" result="effect1_dropShadow_7799_2076"/>
<feBlend mode="normal" in="SourceGraphic" in2="effect1_dropShadow_7799_2076" result="shape"/>
</filter>
<filter id="filter11_d_7799_2076" x="97.2205" y="285.239" width="78.559" height="80.5687" filterUnits="userSpaceOnUse" color-interpolation-filters="sRGB">
<feFlood flood-opacity="0" result="BackgroundImageFix"/>
<feColorMatrix in="SourceAlpha" type="matrix" values="0 0 0 0 0 0 0 0 0 0 0 0 0 0 0 0 0 0 127 0" result="hardAlpha"/>
<feOffset/>
<feGaussianBlur stdDeviation="16.3922"/>
<feComposite in2="hardAlpha" operator="out"/>
<feColorMatrix type="matrix" values="0 0 0 0 1 0 0 0 0 1 0 0 0 0 1 0 0 0 0.25 0"/>
<feBlend mode="normal" in2="BackgroundImageFix" result="effect1_dropShadow_7799_2076"/>
<feBlend mode="normal" in="SourceGraphic" in2="effect1_dropShadow_7799_2076" result="shape"/>
</filter>
<filter id="filter12_d_7799_2076" x="963.216" y="790.239" width="76.5687" height="76.5687" filterUnits="userSpaceOnUse" color-interpolation-filters="sRGB">
<feFlood flood-opacity="0" result="BackgroundImageFix"/>
<feColorMatrix in="SourceAlpha" type="matrix" values="0 0 0 0 0 0 0 0 0 0 0 0 0 0 0 0 0 0 127 0" result="hardAlpha"/>
<feOffset/>
<feGaussianBlur stdDeviation="16.3922"/>
<feComposite in2="hardAlpha" operator="out"/>
<feColorMatrix type="matrix" values="0 0 0 0 1 0 0 0 0 1 0 0 0 0 1 0 0 0 0.25 0"/>
<feBlend mode="normal" in2="BackgroundImageFix" result="effect1_dropShadow_7799_2076"/>
<feBlend mode="normal" in="SourceGraphic" in2="effect1_dropShadow_7799_2076" result="shape"/>
</filter>
<filter id="filter13_d_7799_2076" x="974.216" y="387.216" width="74.5687" height="74.5687" filterUnits="userSpaceOnUse" color-interpolation-filters="sRGB">
<feFlood flood-opacity="0" result="BackgroundImageFix"/>
<feColorMatrix in="SourceAlpha" type="matrix" values="0 0 0 0 0 0 0 0 0 0 0 0 0 0 0 0 0 0 127 0" result="hardAlpha"/>
<feOffset/>
<feGaussianBlur stdDeviation="16.3922"/>
<feComposite in2="hardAlpha" operator="out"/>
<feColorMatrix type="matrix" values="0 0 0 0 1 0 0 0 0 1 0 0 0 0 1 0 0 0 0.25 0"/>
<feBlend mode="normal" in2="BackgroundImageFix" result="effect1_dropShadow_7799_2076"/>
<feBlend mode="normal" in="SourceGraphic" in2="effect1_dropShadow_7799_2076" result="shape"/>
</filter>
<filter id="filter14_d_7799_2076" x="855.216" y="615.216" width="71.5687" height="71.5687" filterUnits="userSpaceOnUse" color-interpolation-filters="sRGB">
<feFlood flood-opacity="0" result="BackgroundImageFix"/>
<feColorMatrix in="SourceAlpha" type="matrix" values="0 0 0 0 0 0 0 0 0 0 0 0 0 0 0 0 0 0 127 0" result="hardAlpha"/>
<feOffset/>
<feGaussianBlur stdDeviation="16.3922"/>
<feComposite in2="hardAlpha" operator="out"/>
<feColorMatrix type="matrix" values="0 0 0 0 1 0 0 0 0 1 0 0 0 0 1 0 0 0 0.25 0"/>
<feBlend mode="normal" in2="BackgroundImageFix" result="effect1_dropShadow_7799_2076"/>
<feBlend mode="normal" in="SourceGraphic" in2="effect1_dropShadow_7799_2076" result="shape"/>
</filter>
<filter id="filter15_d_7799_2076" x="705.216" y="206.216" width="74.5687" height="74.5687" filterUnits="userSpaceOnUse" color-interpolation-filters="sRGB">
<feFlood flood-opacity="0" result="BackgroundImageFix"/>
<feColorMatrix in="SourceAlpha" type="matrix" values="0 0 0 0 0 0 0 0 0 0 0 0 0 0 0 0 0 0 127 0" result="hardAlpha"/>
<feOffset/>
<feGaussianBlur stdDeviation="16.3922"/>
<feComposite in2="hardAlpha" operator="out"/>
<feColorMatrix type="matrix" values="0 0 0 0 1 0 0 0 0 1 0 0 0 0 1 0 0 0 0.25 0"/>
<feBlend mode="normal" in2="BackgroundImageFix" result="effect1_dropShadow_7799_2076"/>
<feBlend mode="normal" in="SourceGraphic" in2="effect1_dropShadow_7799_2076" result="shape"/>
</filter>
<filter id="filter16_d_7799_2076" x="1192.55" y="634.216" width="69.8988" height="70.5687" filterUnits="userSpaceOnUse" color-interpolation-filters="sRGB">
<feFlood flood-opacity="0" result="BackgroundImageFix"/>
<feColorMatrix in="SourceAlpha" type="matrix" values="0 0 0 0 0 0 0 0 0 0 0 0 0 0 0 0 0 0 127 0" result="hardAlpha"/>
<feOffset/>
<feGaussianBlur stdDeviation="16.3922"/>
<feComposite in2="hardAlpha" operator="out"/>
<feColorMatrix type="matrix" values="0 0 0 0 1 0 0 0 0 1 0 0 0 0 1 0 0 0 0.25 0"/>
<feBlend mode="normal" in2="BackgroundImageFix" result="effect1_dropShadow_7799_2076"/>
<feBlend mode="normal" in="SourceGraphic" in2="effect1_dropShadow_7799_2076" result="shape"/>
</filter>
<filter id="filter17_d_7799_2076" x="629.551" y="390.216" width="69.8988" height="70.5687" filterUnits="userSpaceOnUse" color-interpolation-filters="sRGB">
<feFlood flood-opacity="0" result="BackgroundImageFix"/>
<feColorMatrix in="SourceAlpha" type="matrix" values="0 0 0 0 0 0 0 0 0 0 0 0 0 0 0 0 0 0 127 0" result="hardAlpha"/>
<feOffset/>
<feGaussianBlur stdDeviation="16.3922"/>
<feComposite in2="hardAlpha" operator="out"/>
<feColorMatrix type="matrix" values="0 0 0 0 1 0 0 0 0 1 0 0 0 0 1 0 0 0 0.25 0"/>
<feBlend mode="normal" in2="BackgroundImageFix" result="effect1_dropShadow_7799_2076"/>
<feBlend mode="normal" in="SourceGraphic" in2="effect1_dropShadow_7799_2076" result="shape"/>
</filter>
<linearGradient id="paint0_linear_7799_2076" x1="960" y1="-4.84603e-07" x2="960" y2="1269.38" gradientUnits="userSpaceOnUse">
<stop/>
<stop/>
<stop offset="0.225869" stop-color="#000414"/>
<stop offset="0.558892" stop-color="#000A40"/>
</linearGradient>
<radialGradient id="paint1_radial_7799_2076" cx="0" cy="0" r="1" gradientUnits="userSpaceOnUse" gradientTransform="translate(217.5 341.523) rotate(90) scale(1.5)">
<stop stop-color="white"/>
<stop offset="1" stop-color="#CECECE" stop-opacity="0.65"/>
</radialGradient>
<radialGradient id="paint2_radial_7799_2076" cx="0" cy="0" r="1" gradientUnits="userSpaceOnUse" gradientTransform="translate(1489 524.023) rotate(90) scale(5)">
<stop stop-color="white"/>
<stop offset="1" stop-color="#CECECE" stop-opacity="0.65"/>
</radialGradient>
<radialGradient id="paint3_radial_7799_2076" cx="0" cy="0" r="1" gradientUnits="userSpaceOnUse" gradientTransform="translate(524.5 464.5) rotate(90) scale(2.5)">
<stop stop-color="white"/>
<stop offset="1" stop-color="#CECECE" stop-opacity="0.65"/>
</radialGradient>
<linearGradient id="paint4_linear_7799_2076" x1="1.04081" y1="0" x2="1.04081" y2="58.2782" gradientUnits="userSpaceOnUse">
<stop stop-color="white" stop-opacity="0.26"/>
<stop offset="1" stop-color="white"/>
</linearGradient>
<linearGradient id="paint5_linear_7799_2076" x1="1.04081" y1="0" x2="1.04081" y2="58.2782" gradientUnits="userSpaceOnUse">
<stop stop-color="white" stop-opacity="0.26"/>
<stop offset="1" stop-color="white"/>
</linearGradient>
<linearGradient id="paint6_linear_7799_2076" x1="1.04081" y1="0" x2="1.04081" y2="134.177" gradientUnits="userSpaceOnUse">
<stop stop-color="white" stop-opacity="0.26"/>
<stop offset="1" stop-color="white"/>
</linearGradient>
<radialGradient id="paint7_radial_7799_2076" cx="0" cy="0" r="1" gradientUnits="userSpaceOnUse" gradientTransform="translate(180 823.023) rotate(90) scale(4)">
<stop stop-color="white"/>
<stop offset="1" stop-color="#CECECE" stop-opacity="0.65"/>
</radialGradient>
<radialGradient id="paint8_radial_7799_2076" cx="0" cy="0" r="1" gradientUnits="userSpaceOnUse" gradientTransform="translate(478 738.023) rotate(90) scale(4)">
<stop stop-color="white"/>
<stop offset="1" stop-color="#CECECE" stop-opacity="0.65"/>
</radialGradient>
<radialGradient id="paint9_radial_7799_2076" cx="0" cy="0" r="1" gradientUnits="userSpaceOnUse" gradientTransform="translate(1234 330) rotate(90) scale(4)">
<stop stop-color="white"/>
<stop offset="1" stop-color="#CECECE" stop-opacity="0.65"/>
</radialGradient>
<radialGradient id="paint10_radial_7799_2076" cx="0" cy="0" r="1" gradientUnits="userSpaceOnUse" gradientTransform="translate(1722 548.023) rotate(90) scale(3)">
<stop stop-color="white"/>
<stop offset="1" stop-color="#CECECE" stop-opacity="0.65"/>
</radialGradient>
<radialGradient id="paint11_radial_7799_2076" cx="0" cy="0" r="1" gradientUnits="userSpaceOnUse" gradientTransform="translate(1806.5 684.523) rotate(90) scale(5.5)">
<stop stop-color="white"/>
<stop offset="1" stop-color="#CECECE" stop-opacity="0.65"/>
</radialGradient>
<radialGradient id="paint12_radial_7799_2076" cx="0" cy="0" r="1" gradientUnits="userSpaceOnUse" gradientTransform="translate(1843 564.023) rotate(90) scale(4)">
<stop stop-color="white"/>
<stop offset="1" stop-color="#CECECE" stop-opacity="0.65"/>
</radialGradient>
<radialGradient id="paint13_radial_7799_2076" cx="0" cy="0" r="1" gradientUnits="userSpaceOnUse" gradientTransform="translate(310.5 630.523) rotate(90) scale(2.5)">
<stop stop-color="white"/>
<stop offset="1" stop-color="#CECECE" stop-opacity="0.65"/>
</radialGradient>
<radialGradient id="paint14_radial_7799_2076" cx="0" cy="0" r="1" gradientUnits="userSpaceOnUse" gradientTransform="translate(357 404.023) rotate(90) scale(3)">
<stop stop-color="white"/>
<stop offset="1" stop-color="#CECECE" stop-opacity="0.65"/>
</radialGradient>
<radialGradient id="paint15_radial_7799_2076" cx="0" cy="0" r="1" gradientUnits="userSpaceOnUse" gradientTransform="translate(136.5 325.523) rotate(90) scale(7.5)">
<stop stop-color="white"/>
<stop offset="1" stop-color="#CECECE" stop-opacity="0.65"/>
</radialGradient>
<radialGradient id="paint16_radial_7799_2076" cx="0" cy="0" r="1" gradientUnits="userSpaceOnUse" gradientTransform="translate(1001.5 828.523) rotate(90) scale(5.5)">
<stop stop-color="white"/>
<stop offset="1" stop-color="#CECECE" stop-opacity="0.65"/>
</radialGradient>
<radialGradient id="paint17_radial_7799_2076" cx="0" cy="0" r="1" gradientUnits="userSpaceOnUse" gradientTransform="translate(1011.5 424.5) rotate(90) scale(4.5)">
<stop stop-color="white"/>
<stop offset="1" stop-color="#CECECE" stop-opacity="0.65"/>
</radialGradient>
<radialGradient id="paint18_radial_7799_2076" cx="0" cy="0" r="1" gradientUnits="userSpaceOnUse" gradientTransform="translate(891 651) rotate(90) scale(3)">
<stop stop-color="white"/>
<stop offset="1" stop-color="#CECECE" stop-opacity="0.65"/>
</radialGradient>
<linearGradient id="paint19_linear_7799_2076" x1="590.268" y1="1123.78" x2="720.71" y2="821.243" gradientUnits="userSpaceOnUse">
<stop stop-color="#F5F5F5"/>
<stop offset="1" stop-color="#F5F5F5" stop-opacity="0.15"/>
</linearGradient>
<radialGradient id="paint20_radial_7799_2076" cx="0" cy="0" r="1" gradientUnits="userSpaceOnUse" gradientTransform="translate(742.5 243.5) rotate(90) scale(4.5)">
<stop stop-color="white"/>
<stop offset="1" stop-color="#CECECE" stop-opacity="0.65"/>
</radialGradient>
<radialGradient id="paint21_radial_7799_2076" cx="0" cy="0" r="1" gradientUnits="userSpaceOnUse" gradientTransform="translate(1227.5 669.5) rotate(90) scale(2.5)">
<stop stop-color="white"/>
<stop offset="1" stop-color="#CECECE" stop-opacity="0.65"/>
</radialGradient>
<radialGradient id="paint22_radial_7799_2076" cx="0" cy="0" r="1" gradientUnits="userSpaceOnUse" gradientTransform="translate(664.5 425.5) rotate(90) scale(2.5)">
<stop stop-color="white"/>
<stop offset="1" stop-color="#CECECE" stop-opacity="0.65"/>
</radialGradient>
<linearGradient id="paint23_linear_7799_2076" x1="1655.78" y1="859.373" x2="1908.9" y2="272.284" gradientUnits="userSpaceOnUse">
<stop stop-color="#F5F5F5"/>
<stop offset="1" stop-color="#F5F5F5" stop-opacity="0.15"/>
</linearGradient>
</defs>
</svg>
